<?xml version="1.0" encoding="UTF-8" standalone="no"?>
<!DOCTYPE svg PUBLIC "-//W3C//DTD SVG 1.1//EN" "http://www.w3.org/Graphics/SVG/1.1/DTD/svg11.dtd">
<svg viewBox="0 0 640 640" stroke-miterlimit="10" style="fill-rule:nonzero;clip-rule:evenodd;stroke-linecap:round;stroke-linejoin:round;" version="1.1" xml:space="preserve" xmlns="http://www.w3.org/2000/svg" xmlns:xlink="http://www.w3.org/1999/xlink">
<defs/>
<g id="Layer-1" visibility="hidden">
<path d="M5.68434e-14 5.68434e-14L640 5.68434e-14L640 640L5.68434e-14 640L5.68434e-14 5.68434e-14Z" fill="#000002" fill-rule="nonzero" opacity="1" stroke="none"/>
</g>
<g id="Untitled">
<g opacity="1">
<g opacity="1">
<path d="M561.328 180.1C544.048 169.8 524.148 168.18 500.308 172.64L500.308 172.64C484.928 175.52 468.208 181.44 450.288 190.46C450.548 184.2 450.688 178 450.688 171.9L450.488 171.9C451.028 169.1 451.308 166.26 451.308 163.4C451.308 114.98 372.148 75.74 274.508 75.74C176.868 75.74 97.7078 115 97.7078 163.4C97.7078 166.26 97.9878 169.1 98.5278 171.9L98.4278 171.9C97.7478 273.7 118.708 375.7 117.088 477.4C116.308 525.78 176.468 564.26 274.048 564.26C371.628 564.26 420.048 524.86 420.048 477.4C420.048 470.94 420.168 464.48 420.388 457.98C471.608 460.74 514.528 437.34 544.628 404.48C575.908 370.36 595.068 326.32 599.988 285.02C604.908 243.72 595.808 200.68 561.268 180.08L561.328 180.1ZM275.188 125.16C349.688 125.16 410.068 145.6 410.068 170.8C410.068 171.16 410.048 171.54 410.028 171.9L410.028 171.9C410.008 172.28 409.968 172.66 409.908 173.04L409.908 173.04C409.848 173.4 409.788 173.74 409.708 174.1C409.708 174.14 409.688 174.16 409.688 174.2C409.608 174.54 409.528 174.86 409.428 175.18C409.408 175.24 409.408 175.28 409.388 175.34C409.288 175.66 409.188 175.96 409.088 176.28C409.068 176.34 409.048 176.42 409.028 176.48C408.908 176.78 408.788 177.08 408.668 177.38C408.628 177.46 408.608 177.54 408.568 177.62C408.448 177.9 408.308 178.2 408.148 178.48C408.108 178.56 408.068 178.66 408.028 178.74C407.888 179.02 407.728 179.3 407.568 179.56C407.508 179.66 407.468 179.74 407.408 179.84C407.248 180.1 407.068 180.38 406.908 180.64C406.848 180.74 406.788 180.84 406.708 180.94C406.528 181.2 406.348 181.46 406.148 181.72C406.068 181.82 406.008 181.92 405.928 182.04C405.728 182.3 405.528 182.54 405.328 182.8C405.248 182.9 405.168 183.02 405.068 183.12C404.868 183.36 404.648 183.62 404.428 183.86C404.328 183.96 404.248 184.08 404.148 184.18C403.928 184.42 403.688 184.66 403.468 184.9C403.368 185.02 403.248 185.12 403.148 185.24C402.908 185.48 402.668 185.72 402.428 185.94C402.308 186.06 402.188 186.16 402.068 186.28C401.828 186.52 401.568 186.74 401.308 186.96C401.168 187.08 401.048 187.2 400.908 187.3C400.648 187.52 400.388 187.76 400.108 187.98C399.968 188.1 399.828 188.22 399.688 188.34C399.408 188.56 399.128 188.78 398.848 189C398.688 189.12 398.548 189.24 398.388 189.36C398.108 189.58 397.808 189.8 397.508 190C397.348 190.12 397.188 190.24 397.028 190.36C396.728 190.58 396.428 190.78 396.128 190.98C395.948 191.1 395.788 191.22 395.608 191.34C395.308 191.54 394.988 191.74 394.668 191.96C394.488 192.08 394.288 192.2 394.108 192.32C393.788 192.52 393.468 192.72 393.148 192.92C392.948 193.04 392.748 193.16 392.548 193.28C392.228 193.48 391.888 193.68 391.548 193.86C391.348 193.98 391.128 194.1 390.928 194.22C390.588 194.42 390.248 194.6 389.888 194.8C389.668 194.92 389.448 195.04 389.228 195.16C388.888 195.34 388.528 195.54 388.168 195.72C387.928 195.84 387.708 195.96 387.468 196.08C387.108 196.26 386.748 196.44 386.368 196.62C386.128 196.74 385.888 196.86 385.648 196.98C385.268 197.16 384.908 197.34 384.528 197.52C384.268 197.64 384.028 197.76 383.768 197.88C383.388 198.06 383.008 198.22 382.608 198.4C382.348 198.52 382.088 198.64 381.808 198.74C381.428 198.9 381.028 199.08 380.628 199.24C380.348 199.36 380.068 199.48 379.808 199.58C379.408 199.74 379.008 199.9 378.608 200.08C378.328 200.2 378.028 200.3 377.748 200.42C377.348 200.58 376.928 200.74 376.508 200.9C376.208 201.02 375.928 201.12 375.628 201.24C375.208 201.4 374.788 201.56 374.368 201.7C374.068 201.82 373.748 201.92 373.448 202.04C373.028 202.2 372.608 202.34 372.168 202.5C371.848 202.62 371.528 202.72 371.208 202.84C370.788 202.98 370.348 203.14 369.908 203.28C369.588 203.38 369.248 203.5 368.928 203.6C368.488 203.74 368.048 203.88 367.608 204.02C367.268 204.12 366.928 204.24 366.588 204.34C366.148 204.48 365.708 204.62 365.248 204.76C364.888 204.86 364.548 204.98 364.188 205.08C363.748 205.22 363.288 205.34 362.828 205.48C362.468 205.58 362.108 205.68 361.748 205.78C361.288 205.9 360.828 206.04 360.368 206.16C359.988 206.26 359.628 206.36 359.248 206.46C358.788 206.58 358.328 206.7 357.868 206.82C357.488 206.92 357.108 207.02 356.708 207.12C356.248 207.24 355.768 207.36 355.288 207.48C354.908 207.58 354.508 207.68 354.108 207.76C353.628 207.88 353.148 208 352.668 208.1C352.268 208.2 351.868 208.28 351.468 208.38C350.988 208.5 350.508 208.6 350.028 208.72C349.628 208.82 349.208 208.9 348.788 209C348.308 209.1 347.828 209.22 347.328 209.32C346.908 209.42 346.488 209.5 346.068 209.58C345.568 209.68 345.088 209.78 344.588 209.88C344.168 209.96 343.728 210.06 343.308 210.14C342.808 210.24 342.308 210.34 341.808 210.44C341.368 210.52 340.928 210.6 340.508 210.68C340.008 210.78 339.508 210.86 338.988 210.96C338.548 211.04 338.088 211.12 337.648 211.2C337.148 211.3 336.628 211.38 336.128 211.46C335.668 211.54 335.208 211.62 334.748 211.7C334.248 211.78 333.728 211.86 333.208 211.96C332.748 212.04 332.268 212.1 331.808 212.18C331.288 212.26 330.768 212.34 330.248 212.42C329.768 212.5 329.308 212.56 328.828 212.64C328.308 212.72 327.788 212.8 327.268 212.86C326.788 212.92 326.288 213 325.808 213.06C325.288 213.14 324.768 213.2 324.248 213.28C323.748 213.34 323.248 213.4 322.748 213.48C322.228 213.54 321.708 213.62 321.168 213.68C320.668 213.74 320.168 213.8 319.668 213.86C319.148 213.92 318.608 213.98 318.088 214.04C317.588 214.1 317.068 214.16 316.568 214.2C316.028 214.26 315.508 214.32 314.968 214.38C314.448 214.44 313.928 214.48 313.428 214.54C312.888 214.6 312.348 214.64 311.808 214.7C311.288 214.74 310.768 214.8 310.248 214.84C309.708 214.88 309.168 214.94 308.608 214.98C308.048 215.02 307.528 215.06 306.988 215.12C306.448 215.16 305.928 215.2 305.388 215.26C304.848 215.32 304.268 215.34 303.708 215.38C303.188 215.42 302.668 215.46 302.128 215.5C301.568 215.54 300.988 215.58 300.428 215.62C299.908 215.66 299.368 215.68 298.848 215.72C298.268 215.76 297.688 215.78 297.088 215.82C296.568 215.84 296.048 215.88 295.528 215.9C294.928 215.94 294.328 215.96 293.728 215.98C293.208 216 292.708 216.02 292.188 216.06C291.588 216.08 290.968 216.1 290.368 216.14C289.848 216.16 289.348 216.18 288.828 216.2C288.208 216.22 287.588 216.24 286.968 216.26C286.448 216.28 285.948 216.3 285.428 216.3C284.788 216.32 284.148 216.32 283.488 216.34C282.988 216.36 282.508 216.36 282.008 216.38C281.248 216.4 280.508 216.4 279.748 216.4C279.348 216.4 278.968 216.42 278.568 216.42C277.448 216.42 276.308 216.44 275.188 216.44C275.168 216.44 275.148 216.44 275.128 216.44C273.968 216.44 272.828 216.44 271.668 216.42C271.328 216.42 270.988 216.42 270.648 216.4C269.848 216.4 269.028 216.38 268.228 216.36C267.788 216.36 267.348 216.34 266.908 216.34C266.208 216.32 265.508 216.32 264.828 216.3C264.368 216.28 263.908 216.28 263.428 216.26C262.768 216.24 262.088 216.22 261.428 216.2C260.968 216.18 260.508 216.16 260.048 216.14C259.388 216.12 258.728 216.1 258.068 216.06C257.608 216.04 257.148 216.02 256.688 216C256.028 215.96 255.388 215.94 254.728 215.9C254.268 215.88 253.808 215.84 253.328 215.82C252.688 215.78 252.048 215.76 251.408 215.72C250.928 215.7 250.468 215.66 249.988 215.62C249.368 215.58 248.748 215.54 248.128 215.5C247.648 215.46 247.188 215.44 246.708 215.4C246.088 215.36 245.468 215.32 244.868 215.26C244.388 215.22 243.908 215.18 243.428 215.14C242.828 215.1 242.248 215.04 241.648 215C241.148 214.96 240.668 214.92 240.188 214.86C239.608 214.8 239.028 214.76 238.448 214.7C237.968 214.66 237.488 214.6 237.008 214.56C236.428 214.5 235.868 214.44 235.288 214.38C234.808 214.34 234.328 214.28 233.848 214.22C233.288 214.16 232.708 214.1 232.148 214.04C231.668 213.98 231.208 213.92 230.728 213.88C230.168 213.82 229.608 213.74 229.048 213.68C228.588 213.62 228.108 213.56 227.648 213.5C227.088 213.42 226.528 213.36 225.988 213.28C225.528 213.22 225.068 213.16 224.608 213.1C224.068 213.02 223.508 212.96 222.968 212.88C222.508 212.82 222.048 212.74 221.588 212.68C221.048 212.6 220.528 212.52 219.988 212.44C219.528 212.36 219.068 212.3 218.608 212.22C218.088 212.14 217.548 212.06 217.028 211.98C216.568 211.9 216.128 211.84 215.668 211.76C215.148 211.68 214.628 211.58 214.108 211.5C213.648 211.42 213.208 211.34 212.768 211.26C212.248 211.16 211.748 211.08 211.248 210.98C210.808 210.9 210.348 210.82 209.908 210.74C209.408 210.64 208.908 210.56 208.428 210.46C207.988 210.38 207.548 210.28 207.108 210.2C206.608 210.1 206.128 210 205.648 209.9C205.208 209.82 204.788 209.72 204.348 209.64C203.868 209.54 203.368 209.44 202.908 209.34C202.488 209.24 202.048 209.16 201.628 209.06C201.148 208.96 200.688 208.86 200.208 208.74C199.788 208.64 199.368 208.54 198.928 208.44C198.468 208.34 198.008 208.22 197.548 208.12C197.128 208.02 196.708 207.92 196.288 207.82C195.828 207.7 195.388 207.6 194.928 207.48C194.508 207.38 194.108 207.28 193.708 207.16C193.268 207.04 192.808 206.92 192.368 206.82C191.968 206.72 191.568 206.6 191.168 206.5C190.728 206.38 190.288 206.26 189.868 206.14C189.468 206.02 189.068 205.92 188.668 205.8C188.248 205.68 187.828 205.56 187.408 205.44C187.008 205.32 186.628 205.22 186.228 205.1C185.808 204.98 185.388 204.86 184.988 204.72C184.608 204.6 184.228 204.48 183.828 204.36C183.428 204.24 183.028 204.1 182.628 203.98C182.228 203.86 181.868 203.74 181.488 203.62C181.088 203.5 180.708 203.36 180.308 203.24C179.908 203.12 179.568 202.98 179.188 202.86C178.808 202.72 178.428 202.6 178.048 202.46C177.668 202.32 177.328 202.2 176.948 202.08C176.568 201.94 176.208 201.82 175.848 201.68C175.488 201.54 175.128 201.42 174.768 201.28C174.408 201.14 174.048 201 173.708 200.88C173.368 200.76 173.008 200.6 172.648 200.46C172.288 200.32 171.948 200.18 171.608 200.04C171.268 199.9 170.928 199.76 170.588 199.62C170.248 199.48 169.908 199.34 169.588 199.2C169.268 199.06 168.908 198.92 168.588 198.78C168.268 198.64 167.948 198.5 167.608 198.36C167.268 198.22 166.948 198.06 166.628 197.92C166.308 197.78 166.008 197.64 165.688 197.48C165.368 197.32 165.048 197.18 164.728 197.02C164.428 196.88 164.128 196.72 163.828 196.58C163.528 196.44 163.208 196.28 162.908 196.12C162.608 195.98 162.328 195.82 162.028 195.68C161.728 195.54 161.428 195.38 161.148 195.22C160.868 195.06 160.588 194.92 160.308 194.76C160.028 194.6 159.728 194.44 159.448 194.28C159.188 194.12 158.908 193.98 158.648 193.82C158.388 193.66 158.088 193.5 157.808 193.34C157.548 193.18 157.288 193.04 157.048 192.88C156.808 192.72 156.508 192.56 156.248 192.38C156.008 192.22 155.768 192.06 155.508 191.92C155.248 191.78 154.988 191.58 154.728 191.42C154.488 191.26 154.268 191.1 154.028 190.94C153.768 190.76 153.528 190.6 153.288 190.42C153.068 190.26 152.848 190.1 152.648 189.94C152.408 189.76 152.168 189.58 151.928 189.42C151.728 189.26 151.508 189.1 151.308 188.94C151.088 188.76 150.848 188.58 150.628 188.4C150.428 188.24 150.248 188.08 150.048 187.92C149.828 187.74 149.608 187.56 149.408 187.38C149.228 187.22 149.048 187.06 148.868 186.9C148.668 186.72 148.448 186.54 148.268 186.34C148.088 186.18 147.928 186.02 147.768 185.86C147.568 185.68 147.388 185.48 147.188 185.3C147.028 185.14 146.868 184.98 146.728 184.82C146.548 184.62 146.368 184.44 146.188 184.24C146.048 184.08 145.908 183.92 145.768 183.76C145.608 183.56 145.428 183.38 145.268 183.18C145.128 183.02 145.008 182.86 144.868 182.7C144.708 182.5 144.548 182.3 144.408 182.1C144.288 181.94 144.168 181.76 144.048 181.6C143.908 181.4 143.768 181.2 143.628 181C143.508 180.84 143.408 180.66 143.308 180.5C143.188 180.3 143.048 180.1 142.928 179.9C142.828 179.74 142.748 179.58 142.648 179.4C142.528 179.2 142.408 178.98 142.308 178.78C142.228 178.62 142.148 178.46 142.068 178.28C141.968 178.06 141.868 177.86 141.768 177.64C141.688 177.48 141.628 177.32 141.568 177.16C141.488 176.94 141.388 176.74 141.308 176.52C141.248 176.36 141.208 176.2 141.148 176.04C141.068 175.82 141.008 175.6 140.928 175.4C140.888 175.24 140.848 175.08 140.808 174.92C140.748 174.7 140.688 174.48 140.648 174.26C140.608 174.1 140.588 173.94 140.568 173.78C140.528 173.56 140.468 173.32 140.448 173.1C140.428 172.94 140.408 172.8 140.388 172.64C140.368 172.4 140.328 172.16 140.308 171.94C140.288 171.56 140.268 171.18 140.268 170.82C140.268 145.62 200.648 125.2 275.148 125.2L275.188 125.16ZM555.568 280.62C551.828 312 536.648 348.34 512.548 374.64C489.388 399.92 460.128 415.44 423.348 413.4C428.708 355.82 439.408 298.2 445.728 244.54C497.648 211.36 526.588 211.08 539.248 218.64C552.068 226.28 559.288 249.26 555.548 280.64L555.568 280.62Z" fill="#ffffff" fill-rule="nonzero" opacity="1" stroke="none"/>
</g>
</g>
</g>
<g id="Layer-2">
<path d="M160.46 426.36L210.417 348.47L246.408 458.053L277.564 281.861L320 408.096L343.098 335.578L374.254 369.957" fill="none" opacity="1" stroke="#000002" stroke-linecap="butt" stroke-linejoin="round" stroke-width="17.1009"/>
</g>
</svg>
